<svg class="favicon-svg" width="24" height="24" viewBox="0 0 24 24" fill="none" xmlns="http://www.w3.org/2000/svg">
<style>
    path {
      fill: #111827;
    }
    @media (prefers-color-scheme: dark) {
      path {
        fill: #FFFFFF;
      }
    }
</style>
<mask id="mask0_181_19" style="mask-type:alpha" maskUnits="userSpaceOnUse" x="0" y="0" width="24" height="24">
<rect width="24" height="24" fill="#D9D9D9"/>
</mask>
<g mask="url(#mask0_181_19)">
<path d="M7.3 19.2H16.9V16.8H7.3V19.2ZM7.3 14.4H16.9V12H7.3V14.4ZM4.9 24C4.24 24 3.6752 23.7652 3.2056 23.2956C2.7352 22.8252 2.5 22.26 2.5 21.6V2.4C2.5 1.74 2.7352 1.1748 3.2056 0.7044C3.6752 0.2348 4.24 0 4.9 0H14.5L21.7 7.2V21.6C21.7 22.26 21.4652 22.8252 20.9956 23.2956C20.5252 23.7652 19.96 24 19.3 24H4.9ZM13.3 8.4H19.3L13.3 2.4V8.4Z" fill="#111827"/>
</g>
</svg>
